# xmcd
#
# Track frame offsets:
#	150
#	17624
#	42036
#	67151
#	83076
#	98552
#	123975
#	141843
#	162456
#	185804
#	202998
#	239108
#	255585
#	286936
#	302536
#
# Disc length: 4282 seconds
#
# Revision: 0
# Processed by: cddbd v1.4PL0 Copyright (c) Steve Scherf et al.
# Submitted via: EasyCDDAExtractor 4.6.0.1
#
DISCID=d010b80f
DTITLE=Joe Walsh - Little did he know...
DYEAR=1900
DGENRE=Blues
TTITLE0=Funk #49
TTITLE1=Tend my garden
TTITLE2=The bomber
TTITLE3=Walk away
TTITLE4=Midnight man
TTITLE5=Mothers says
TTITLE6=Turn to stone
TTITLE7=Meadows
TTITLE8=Rocky Mountain way
TTITLE9=Help me thru the night
TTITLE10=Life´s been good
TTITLE11=All night long
TTITLE12=The confessor
TTITLE13=A life of illusion
TTITLE14=Ordinary average guy
EXTD=
EXTT0=
EXTT1=
EXTT2=
EXTT3=
EXTT4=
EXTT5=
EXTT6=
EXTT7=
EXTT8=
EXTT9=
EXTT10=
EXTT11=
EXTT12=
EXTT13=
EXTT14=
PLAYORDER=
